<svg xmlns="http://www.w3.org/2000/svg" width="1360" height="850" viewBox="0 0 1360 850">
  <defs>
    <marker id="arrow" markerWidth="10" markerHeight="10" refX="8" refY="3" orient="auto">
      <path d="M0,0 L0,6 L9,3 z" fill="#111"/>
    </marker>
    <marker id="red-arrow" markerWidth="10" markerHeight="10" refX="8" refY="3" orient="auto">
      <path d="M0,0 L0,6 L9,3 z" fill="#d62728"/>
    </marker>
    <style>
      .title{font:700 16px Arial,sans-serif;fill:#111}
      .label{font:14px Arial,sans-serif;fill:#111}
      .small{font:12px Arial,sans-serif;fill:#111}
      .muted{font:12px Arial,sans-serif;fill:#666}
      .aws{fill:#fff;stroke:#1f2937;stroke-width:1.3}
      .vpc{fill:#fff;stroke:#8b5cf6;stroke-width:1.2}
      .subnet-public{fill:#f1f7e8;stroke:none}
      .subnet-private{fill:#e9f8fb;stroke:none}
      .nodegroup{fill:none;stroke:#111;stroke-width:1.1;stroke-dasharray:8 8}
      .dash{fill:none;stroke:#111;stroke-width:1.2;stroke-dasharray:8 8;marker-end:url(#arrow)}
      .line{fill:none;stroke:#111;stroke-width:1.2;marker-end:url(#arrow)}
      .redline{fill:none;stroke:#d62728;stroke-width:1.2;stroke-dasharray:4 4;marker-end:url(#red-arrow)}
      .icon{fill:#2563eb;stroke:#1d4ed8;stroke-width:1}
      .purple{fill:#fff;stroke:#8b5cf6;stroke-width:2}
      .green{fill:#7bb342}
      .teal{fill:#0ea5a7}
      .orange{fill:#f97316}
      .pink{fill:#fff;stroke:#e95a8a;stroke-width:2}
      .pod{fill:#fff;stroke:#b5a900;stroke-width:1;stroke-dasharray:4 4}
    </style>
  </defs>

  <rect width="1360" height="850" fill="#fff"/>

  <!-- CI/CD flow -->
  <circle cx="76" cy="800" r="30" fill="#000"/>
  <text x="76" y="806" text-anchor="middle" font-size="26" fill="#fff">GH</text>
  <text x="276" y="826" text-anchor="middle" class="small">DevOps</text>
  <text x="370" y="806" text-anchor="middle" class="label">Terraform</text>
  <text x="370" y="824" text-anchor="middle" class="label">Apply</text>
  <path d="M106 800 H250" class="dash"/>
  <text x="170" y="790" class="label">Push Code</text>

  <rect x="455" y="762" width="56" height="56" fill="#5b5bd6"/>
  <path d="M483 762 v56 M455 790 h56" stroke="#fff" stroke-width="5"/>
  <text x="483" y="833" text-anchor="middle" class="title">Terraform</text>
  <path d="M512 790 H668 V704" class="redline"/>
  <text x="580" y="792" class="label">Infrastructure Provisioning</text>

  <circle cx="75" cy="650" r="30" fill="#000"/>
  <text x="75" y="656" text-anchor="middle" font-size="25" fill="#fff">GH</text>
  <text x="75" y="696" text-anchor="middle" class="title">Github</text>
  <text x="75" y="712" text-anchor="middle" class="title">Action</text>
  <path d="M75 770 V682" class="dash"/>
  <text x="32" y="576" class="label">CI</text>
  <text x="32" y="592" class="label">Scan &amp; Test</text>

  <text x="76" y="32" text-anchor="middle" class="title">CD</text>
  <text x="76" y="52" text-anchor="middle" class="label">Pull Image</text>
  <circle cx="76" cy="218" r="30" fill="#eee" stroke="#666" stroke-width="5"/>
  <text x="76" y="226" text-anchor="middle" font-size="24" fill="#238636">HB</text>
  <text x="72" y="360" text-anchor="middle" class="title">CI</text>
  <text x="72" y="383" text-anchor="middle" class="label">Build &amp; Push Image</text>
  <path d="M75 620 V464" class="dash"/>
  <path d="M76 434 V250" class="dash"/>
  <path d="M76 186 V62" class="dash"/>

  <circle cx="238" cy="218" r="30" fill="#000"/>
  <text x="238" y="226" text-anchor="middle" font-size="25" fill="#fff">GH</text>
  <text x="238" y="268" text-anchor="middle" class="small">Github</text>
  <text x="238" y="330" text-anchor="middle" class="title">CI</text>
  <text x="238" y="360" text-anchor="middle" class="label">Push Manifest</text>
  <path d="M105 435 H238 V250" class="dash"/>
  <path d="M238 188 V82" class="dash"/>
  <text x="238" y="104" text-anchor="middle" class="title">CD</text>
  <text x="238" y="122" text-anchor="middle" class="label">GitOps</text>

  <text x="448" y="68" text-anchor="middle" font-size="38">argo</text>
  <path d="M448 92 V442" class="dash"/>
  <text x="448" y="314" text-anchor="middle" class="title">CD</text>
  <text x="448" y="331" text-anchor="middle" class="label">Deploy</text>
  <path d="M448 14 H144" class="dash"/>
  <path d="M448 64 H238" class="dash"/>

  <!-- AWS Cloud -->
  <rect x="333" y="132" width="675" height="570" class="aws"/>
  <rect x="333" y="132" width="28" height="28" fill="#1f2937"/>
  <text x="347" y="153" text-anchor="middle" font-size="18" fill="#fff">☁</text>
  <text x="365" y="151" class="small" fill="#374151">AWS Cloud</text>

  <rect x="538" y="184" width="440" height="461" class="vpc"/>
  <rect x="538" y="184" width="24" height="24" fill="#8b5cf6"/>
  <text x="576" y="203" class="small" fill="#888">VPC</text>

  <rect x="579" y="214" width="130" height="121" class="subnet-public"/>
  <rect x="803" y="214" width="130" height="121" class="subnet-public"/>
  <rect x="580" y="216" width="22" height="24" class="green"/>
  <rect x="804" y="216" width="22" height="24" class="green"/>
  <text x="610" y="233" class="small" fill="#249000">Public subnet</text>
  <text x="834" y="233" class="small" fill="#249000">Public subnet</text>
  <circle cx="644" cy="274" r="24" class="purple"/>
  <path d="M632 260 v28 M632 274 h25 M657 260 v28" stroke="#8b5cf6" stroke-width="3"/>
  <circle cx="868" cy="274" r="24" class="purple"/>
  <path d="M856 260 v28 M856 274 h25 M881 260 v28" stroke="#8b5cf6" stroke-width="3"/>

  <text x="758" y="88" text-anchor="middle" class="title">Users</text>
  <circle cx="758" cy="132" r="25" fill="#fff" stroke="#111" stroke-width="2"/>
  <path d="M748 154 V120 M758 154 V112 M768 154 V120" stroke="#111" stroke-width="4"/>
  <text x="758" y="185" text-anchor="middle" class="small">Internet</text>
  <text x="758" y="201" text-anchor="middle" class="small">Gateway</text>
  <path d="M758 101 V265" class="line"/>
  <circle cx="758" cy="286" r="24" class="purple"/>
  <path d="M744 296 h28 M758 272 v24 M744 296 v10 M758 296 v10 M772 296 v10" stroke="#8b5cf6" stroke-width="3"/>
  <text x="758" y="334" text-anchor="middle" class="small">LoadBalancer</text>

  <rect x="556" y="393" width="402" height="234" class="nodegroup"/>
  <text x="758" y="382" text-anchor="middle" class="small">EKS NODE GROUP</text>
  <rect x="579" y="424" width="149" height="171" class="subnet-private"/>
  <rect x="766" y="424" width="177" height="171" class="subnet-private"/>
  <rect x="580" y="426" width="22" height="24" class="teal"/>
  <rect x="767" y="426" width="22" height="24" class="teal"/>
  <text x="609" y="442" class="small" fill="#0284c7">Private subnet</text>
  <text x="796" y="442" class="small" fill="#0284c7">Private subnet</text>
  <path d="M738 318 L652 424" class="line"/>
  <path d="M778 318 L854 424" class="line"/>

  <g>
    <polygon points="620,488 642,488 656,506 650,530 620,536 594,526 590,505" fill="#3b82f6"/>
    <text x="623" y="518" text-anchor="middle" font-size="11" fill="#fff">node</text>
    <polygon points="688,488 710,488 724,506 718,530 688,536 662,526 658,505" fill="#3b82f6"/>
    <text x="691" y="518" text-anchor="middle" font-size="11" fill="#fff">node</text>
    <polygon points="816,488 838,488 852,506 846,530 816,536 790,526 786,505" fill="#3b82f6"/>
    <text x="819" y="518" text-anchor="middle" font-size="11" fill="#fff">node</text>
    <polygon points="895,488 917,488 931,506 925,530 895,536 869,526 865,505" fill="#3b82f6"/>
    <text x="898" y="518" text-anchor="middle" font-size="11" fill="#fff">node</text>
  </g>
  <text x="600" y="582" font-size="30">▣</text>
  <text x="634" y="582" font-size="30">▣</text>
  <text x="681" y="582" font-size="30">▣</text>
  <text x="806" y="582" font-size="30">▣</text>
  <text x="884" y="582" font-size="30">▣</text>

  <rect x="409" y="462" width="80" height="78" fill="#1f2937"/>
  <path d="M449 480 l25 14 v28 l-25 14 l-25-14 v-28 z" fill="none" stroke="#fff" stroke-width="3"/>
  <text x="449" y="554" text-anchor="middle" class="small">Amazon EKS</text>
  <path d="M489 510 H556" class="line"/>

  <!-- Observability pod/tooling -->
  <rect x="1048" y="361" width="277" height="255" class="pod"/>
  <text x="1060" y="381" class="small">Pod</text>
  <text x="1102" y="471" text-anchor="middle" font-size="32">argo</text>
  <circle cx="1189" cy="432" r="34" fill="#eee" stroke="#777" stroke-width="6"/>
  <text x="1189" y="441" text-anchor="middle" font-size="23" fill="#238636">HB</text>
  <rect x="1253" y="407" width="58" height="58" fill="#2b7dcc"/>
  <text x="1282" y="448" text-anchor="middle" font-size="32" fill="#fff">TS</text>
  <text x="1100" y="560" text-anchor="middle" font-size="35" fill="#e95a8a">TK</text>
  <circle cx="1189" cy="539" r="20" fill="#f04e23"/>
  <text x="1189" y="570" text-anchor="middle" class="small" fill="#ccc">Prometheus</text>
  <circle cx="1278" cy="539" r="24" fill="#f97316"/>
  <text x="1278" y="570" text-anchor="middle" class="title" fill="#777">Grafana</text>
  <path d="M943 575 H1048" class="dash"/>
</svg>
